<?xml version="1.0" encoding="utf-8"?>
<!-- Generator: Adobe Illustrator 16.0.0, SVG Export Plug-In . SVG Version: 6.00 Build 0)  -->
<!DOCTYPE svg PUBLIC "-//W3C//DTD SVG 1.1//EN" "http://www.w3.org/Graphics/SVG/1.1/DTD/svg11.dtd">
<svg version="1.1" id="Layer_1" xmlns="http://www.w3.org/2000/svg" xmlns:xlink="http://www.w3.org/1999/xlink" x="0px" y="0px"
	 width="148px" height="194px" viewBox="0 0 148 194" enable-background="new 0 0 148 194" xml:space="preserve">
<g>
	<g>
		<g>
			<path fill="#9B30FF" d="M73.641,15.882l50,29v58l-50,29l-50.001-29v-58L73.641,15.882 M73.641,6.655l-4.004,2.323l-50.001,29
				l-3.978,2.307v4.598v58v4.598l3.978,2.307l50.001,29l4.004,2.323l4.004-2.323l50-29l3.977-2.307v-4.598v-58v-4.598l-3.977-2.307
				l-50-29L73.641,6.655L73.641,6.655z"/>
		</g>
		<g>
			<path fill="#9B30FF" d="M73.641,50.102c0,0,18.414,18.975,18.414,29.145c0,10.17-8.244,18.415-18.414,18.415
				c-10.171,0-18.415-8.245-18.415-18.415C55.226,69.077,73.641,50.102,73.641,50.102 M73.642,38.615L67.9,44.53
				c-0.202,0.208-4.986,5.153-9.819,11.468c-7.406,9.675-10.855,17.063-10.855,23.249c0,14.565,11.85,26.415,26.415,26.415
				c14.565,0,26.414-11.85,26.414-26.415c0-6.186-3.449-13.573-10.854-23.249c-4.833-6.315-9.617-11.26-9.819-11.468L73.642,38.615
				L73.642,38.615z"/>
		</g>
	</g>
	<g>
		<path fill="#9B30FF" d="M5.606,180.645c-0.256-0.257-0.385-0.551-0.385-0.88c0-0.294,0.055-0.523,0.165-0.688
			c0.11-0.165,0.257-0.321,0.44-0.468c0.587-0.403,1.173-0.98,1.76-1.732c0.586-0.751,1.155-1.567,1.705-2.448
			c0.55-0.88,1.082-1.74,1.595-2.585c0.513-0.843,0.971-1.558,1.375-2.145c0.293-0.44,0.586-0.778,0.88-1.018
			c0.293-0.238,0.641-0.357,1.045-0.357c0.293,0,0.586,0.129,0.88,0.385c0.293,0.257,0.44,0.587,0.44,0.99
			c0,0.22-0.046,0.44-0.138,0.66c-0.092,0.22-0.192,0.439-0.302,0.66c-0.514,0.953-0.99,1.852-1.43,2.694
			c-0.44,0.844-0.853,1.678-1.237,2.503c-0.385,0.825-0.762,1.642-1.128,2.447c-0.367,0.807-0.734,1.669-1.1,2.585
			c-0.257,0.66-0.459,1.21-0.605,1.65c-0.147,0.439-0.22,0.807-0.22,1.1c0,0.478,0.22,0.715,0.66,0.715
			c0.293,0,0.788-0.21,1.485-0.632c0.696-0.422,1.458-0.936,2.283-1.54c0.825-0.605,1.631-1.256,2.42-1.953
			c0.788-0.695,1.42-1.319,1.897-1.87c0.256-0.329,0.586-0.494,0.99-0.494c0.366,0,0.688,0.137,0.963,0.412
			c0.275,0.275,0.412,0.614,0.412,1.018c0,0.367-0.129,0.679-0.385,0.935c-0.44,0.44-1.055,1.045-1.843,1.815
			c-0.789,0.77-1.668,1.521-2.64,2.255c-0.972,0.734-1.98,1.366-3.025,1.897c-1.045,0.531-2.045,0.798-2.998,0.798
			c-1.064,0-1.825-0.248-2.283-0.743c-0.459-0.495-0.688-1.2-0.688-2.117c0-0.513,0.064-1.108,0.192-1.787
			c0.128-0.679,0.321-1.311,0.578-1.897c-0.074,0.036-0.22,0.082-0.44,0.137c-0.22,0.056-0.366,0.083-0.44,0.083
			C6.156,181.029,5.863,180.901,5.606,180.645z M15.121,162.137c-0.294-0.385-0.44-0.834-0.44-1.348c0-0.696,0.21-1.356,0.633-1.979
			c0.421-0.623,0.999-0.936,1.732-0.936c0.33,0,0.668,0.083,1.018,0.248c0.348,0.165,0.668,0.385,0.962,0.659
			c0.293,0.275,0.531,0.587,0.715,0.936c0.183,0.349,0.275,0.688,0.275,1.018c0,0.22-0.101,0.449-0.302,0.688
			c-0.202,0.238-0.468,0.449-0.798,0.632c-0.33,0.185-0.697,0.34-1.1,0.468c-0.404,0.129-0.825,0.192-1.265,0.192
			C15.891,162.714,15.414,162.521,15.121,162.137z"/>
		<path fill="#9B30FF" d="M44.326,178.279c0.366,0,0.678,0.138,0.935,0.412c0.256,0.275,0.385,0.614,0.385,1.018
			c0,0.44-0.184,0.844-0.55,1.21c-0.44,0.44-1.045,1.027-1.815,1.76c-0.77,0.734-1.604,1.449-2.503,2.146
			c-0.898,0.697-1.833,1.301-2.805,1.815c-0.972,0.513-1.879,0.77-2.723,0.77c-1.577,0-2.365-0.587-2.365-1.76
			c0-0.184,0.027-0.403,0.083-0.66c0.055-0.256,0.137-0.513,0.247-0.771c0.477-1.1,0.971-2.327,1.485-3.685
			c0.513-1.356,0.99-2.676,1.43-3.96c0.44-1.283,0.798-2.447,1.073-3.492s0.413-1.788,0.413-2.228
			c-1.724,0.917-3.272,1.889-4.647,2.915s-2.659,2.163-3.85,3.409c-1.192,1.247-2.319,2.641-3.383,4.181s-2.109,3.3-3.135,5.28
			c-1.394,0-2.09-0.532-2.09-1.596c0-0.183,0.063-0.495,0.192-0.935c0.128-0.44,0.248-0.807,0.357-1.101
			c0.366-0.843,0.743-1.75,1.127-2.722c0.385-0.972,0.743-2.008,1.073-3.108c-0.404,0.515-0.935,1.11-1.595,1.788
			c-0.66,0.679-1.192,1.22-1.595,1.622c-0.294,0.294-0.605,0.44-0.935,0.44c-0.366,0-0.696-0.119-0.99-0.357
			c-0.293-0.238-0.44-0.559-0.44-0.963c0-0.403,0.129-0.732,0.385-0.99c1.466-1.54,2.906-3.061,4.318-4.564
			c1.411-1.503,2.521-3.025,3.327-4.565c0.183-0.402,0.366-0.65,0.55-0.742c0.183-0.091,0.476-0.138,0.88-0.138
			c0.293,0,0.55,0.047,0.77,0.138c0.22,0.092,0.33,0.34,0.33,0.742c0,0.66-0.129,1.55-0.385,2.668
			c-0.257,1.119-0.532,2.265-0.825,3.438c0.88-0.99,1.87-1.943,2.97-2.86c1.1-0.916,2.173-1.723,3.218-2.42
			c1.045-0.696,1.998-1.256,2.86-1.678c0.861-0.421,1.513-0.632,1.953-0.632c0.66,0,1.201,0.22,1.623,0.66
			c0.421,0.439,0.632,1.191,0.632,2.255c0,0.587-0.156,1.439-0.467,2.558c-0.312,1.118-0.697,2.337-1.155,3.657
			c-0.459,1.319-0.962,2.649-1.512,3.987c-0.55,1.339-1.064,2.503-1.54,3.492c0.33,0,0.861-0.229,1.595-0.688
			c0.733-0.458,1.503-1.008,2.31-1.649c0.806-0.642,1.576-1.293,2.31-1.953c0.733-0.659,1.265-1.21,1.595-1.649
			C43.702,178.444,43.996,178.279,44.326,178.279z"/>
		<path fill="#9B30FF" d="M44.436,181.029c-0.366,0-0.696-0.146-0.99-0.44c-0.293-0.293-0.44-0.623-0.44-0.989
			s0.129-0.679,0.385-0.936c1.576-1.576,3.218-3.327,4.923-5.252c1.705-1.926,3.327-3.804,4.867-5.638
			c0.99-2.566,1.906-4.904,2.75-7.013c0.843-2.108,1.65-3.914,2.42-5.418c0.77-1.503,1.54-2.676,2.31-3.52
			c0.77-0.843,1.576-1.265,2.42-1.265c0.77,0,1.338,0.257,1.705,0.77c0.366,0.514,0.55,1.229,0.55,2.146
			c0,0.807-0.239,1.76-0.715,2.859c-0.477,1.101-1.11,2.282-1.898,3.548c-0.789,1.265-1.714,2.585-2.777,3.96
			c-1.064,1.375-2.182,2.741-3.355,4.098c0.733-0.623,1.567-1.191,2.502-1.705s1.989-0.771,3.163-0.771
			c0.916,0,1.668,0.11,2.255,0.33c0.586,0.221,1.054,0.505,1.403,0.853c0.348,0.349,0.595,0.752,0.742,1.21
			c0.146,0.459,0.22,0.927,0.22,1.402c0,1.32-0.385,2.577-1.155,3.768c-0.77,1.192-1.714,2.255-2.833,3.19
			c-1.119,0.935-2.337,1.724-3.657,2.365c-1.32,0.642-2.53,1.072-3.63,1.292c0.183,1.395,0.632,2.549,1.347,3.465
			c0.715,0.917,1.604,1.375,2.667,1.375c0.733,0,1.54-0.22,2.42-0.66c0.88-0.439,1.751-0.962,2.613-1.567
			c0.861-0.604,1.641-1.237,2.337-1.897c0.696-0.66,1.228-1.21,1.595-1.649c0.146-0.184,0.32-0.321,0.522-0.413
			c0.201-0.091,0.394-0.137,0.577-0.137c0.403,0,0.751,0.109,1.046,0.329c0.293,0.221,0.439,0.532,0.439,0.936
			c0,0.33-0.129,0.624-0.385,0.88c-0.478,0.514-1.11,1.155-1.898,1.925c-0.789,0.771-1.677,1.531-2.667,2.282
			c-0.99,0.752-2.054,1.394-3.19,1.926c-1.137,0.531-2.274,0.797-3.41,0.797c-1.064,0-2.017-0.229-2.86-0.688
			c-0.844-0.459-1.559-1.054-2.145-1.787c-0.587-0.733-1.027-1.54-1.32-2.42c-0.294-0.88-0.44-1.76-0.44-2.641
			c0-0.586,0.173-1.081,0.522-1.484c0.348-0.403,0.724-0.678,1.127-0.825c3.226-1.173,5.591-2.456,7.095-3.85
			c1.503-1.394,2.255-2.75,2.255-4.07c0-0.366-0.074-0.706-0.22-1.018c-0.147-0.312-0.532-0.468-1.155-0.468
			c-0.77,0-1.532,0.156-2.283,0.468c-0.752,0.312-1.467,0.715-2.145,1.21c-0.679,0.495-1.32,1.045-1.925,1.65
			c-0.605,0.604-1.146,1.201-1.623,1.787c-0.44,0.697-0.88,1.513-1.32,2.447c-0.44,0.936-0.88,1.917-1.32,2.942
			c-0.44,1.027-0.88,2.082-1.32,3.163c-0.44,1.082-0.88,2.137-1.32,3.162c-0.294,0.697-0.55,1.146-0.77,1.348
			c-0.22,0.201-0.679,0.303-1.375,0.303c-0.404,0-0.715-0.064-0.935-0.192c-0.22-0.129-0.33-0.395-0.33-0.798
			c0-0.256,0.101-0.705,0.302-1.348c0.201-0.641,0.468-1.393,0.797-2.255c0.33-0.861,0.715-1.796,1.155-2.805
			c0.44-1.008,0.898-2.025,1.375-3.053c-0.294,0.294-0.615,0.642-0.962,1.045c-0.349,0.404-0.707,0.807-1.073,1.21
			c-0.367,0.404-0.734,0.798-1.1,1.183c-0.367,0.385-0.679,0.706-0.935,0.963C45.113,180.901,44.801,181.029,44.436,181.029z
			 M62.805,153.199c-0.184,0-0.312,0.092-0.385,0.275c-0.147,0.22-0.349,0.587-0.605,1.1c-0.257,0.514-0.55,1.128-0.88,1.843
			c-0.33,0.715-0.679,1.504-1.045,2.364c-0.367,0.862-0.715,1.752-1.045,2.668c0.586-0.806,1.136-1.641,1.65-2.503
			c0.513-0.86,0.953-1.668,1.32-2.42c0.366-0.751,0.66-1.393,0.88-1.925c0.22-0.531,0.33-0.889,0.33-1.072
			C63.025,153.31,62.952,153.199,62.805,153.199z"/>
		<path fill="#9B30FF" d="M81.01,168.27c0.881-1.174,1.98-1.761,3.301-1.761c0.879,0,1.695,0.294,2.447,0.881
			c0.75,0.587,1.127,1.687,1.127,3.3c0,1.21-0.184,2.585-0.549,4.125c-0.367,1.54-0.844,3.044-1.432,4.51
			c0.404,0.294,0.861,0.44,1.375,0.44c0.367,0,0.697-0.056,0.99-0.165c0.293-0.11,0.586-0.349,0.881-0.716
			c0.33-0.365,0.715-0.55,1.154-0.55c0.404,0,0.734,0.129,0.99,0.385c0.256,0.258,0.385,0.569,0.385,0.936
			c0,0.11-0.018,0.239-0.055,0.385c-0.037,0.147-0.146,0.33-0.33,0.55c-0.514,0.624-1.127,1.101-1.842,1.431
			s-1.439,0.495-2.174,0.495c-0.953,0-1.834-0.221-2.639-0.66c-0.33,0.514-0.725,1.1-1.184,1.76s-1.025,1.292-1.705,1.897
			c-0.678,0.604-1.504,1.108-2.475,1.513c-0.971,0.402-2.117,0.604-3.438,0.604c-1.651,0-2.796-0.522-3.438-1.567
			s-0.963-2.393-0.963-4.042c0-0.733,0.056-1.521,0.166-2.365c-0.258,0.294-0.569,0.597-0.936,0.907
			c-0.367,0.312-0.697,0.468-0.99,0.468c-0.403,0-0.733-0.138-0.99-0.413c-0.256-0.274-0.385-0.613-0.385-1.017
			c0-0.184,0.055-0.366,0.165-0.551c0.11-0.183,0.312-0.402,0.605-0.659c0.404-0.366,0.935-0.936,1.595-1.705
			c0.66-0.771,1.356-1.687,2.09-2.75c0.733-3.594,1.494-6.848,2.284-9.763c0.787-2.915,1.613-5.398,2.475-7.453
			c0.861-2.053,1.76-3.638,2.695-4.757c0.936-1.118,1.916-1.678,2.941-1.678c0.734,0,1.293,0.357,1.678,1.072
			s0.578,1.495,0.578,2.338c0,0.77-0.119,1.622-0.357,2.558c-0.238,0.935-0.531,1.87-0.881,2.805
			c-0.348,0.935-0.725,1.843-1.127,2.723c-0.404,0.88-0.789,1.687-1.154,2.42c-1.504,3.007-2.869,5.409-4.098,7.205
			c-1.229,1.797-2.062,3.062-2.502,3.795c-0.625,2.714-0.936,4.858-0.936,6.435c0,2.164,0.641,3.245,1.924,3.245
			c1.174,0,2.246-0.439,3.219-1.319c0.971-0.881,1.859-2.091,2.668-3.631c-1.65-1.833-2.477-4.088-2.477-6.765
			C79.689,171.074,80.131,169.443,81.01,168.27z M82.715,153.804c-0.074-0.146-0.238-0.22-0.494-0.22
			c-0.184,0-0.422,0.284-0.715,0.853c-0.295,0.569-0.605,1.284-0.936,2.146s-0.67,1.834-1.018,2.915
			c-0.35,1.082-0.68,2.136-0.99,3.162c-0.312,1.027-0.586,1.972-0.824,2.832c-0.24,0.862-0.395,1.513-0.469,1.953
			c0.734-1.32,1.43-2.668,2.09-4.043s1.246-2.658,1.762-3.85c0.512-1.191,0.924-2.209,1.236-3.053
			c0.311-0.843,0.467-1.411,0.467-1.705C82.824,154.281,82.789,153.951,82.715,153.804z M84.805,169.727
			c-0.146-0.274-0.367-0.412-0.66-0.412c-0.184,0-0.375,0.046-0.576,0.138c-0.203,0.092-0.395,0.274-0.578,0.55
			c-0.184,0.274-0.34,0.642-0.467,1.1c-0.129,0.459-0.193,1.072-0.193,1.843c0,0.844,0.102,1.613,0.303,2.31
			c0.201,0.697,0.486,1.302,0.852,1.815c0.551-1.43,0.945-2.713,1.184-3.851c0.238-1.136,0.357-2.016,0.357-2.64
			C85.025,170.286,84.951,170.002,84.805,169.727z"/>
		<path fill="#9B30FF" d="M90.359,181.029c-0.402,0-0.742-0.138-1.018-0.413c-0.275-0.274-0.412-0.613-0.412-1.017
			c0-0.366,0.146-0.679,0.439-0.936c0.514-0.513,1.109-1.136,1.787-1.87c0.678-0.732,1.402-1.54,2.174-2.42
			c0.953-2.713,1.951-5.463,2.996-8.25c1.045-2.786,2.137-5.308,3.273-7.562c1.135-2.255,2.328-4.098,3.574-5.527
			s2.566-2.145,3.961-2.145c0.695,0,1.162,0.312,1.402,0.935c0.238,0.624,0.357,1.356,0.357,2.2c0,2.529-1.137,5.638-3.41,9.322
			s-5.555,7.765-9.846,12.237c-0.514,1.688-0.98,3.3-1.402,4.84s-0.633,2.659-0.633,3.355c0,0.514,0.092,0.807,0.275,0.88h0.109
			c0.258,0,0.717-0.201,1.375-0.605c0.66-0.402,1.385-0.897,2.174-1.484c0.787-0.586,1.566-1.229,2.338-1.925
			c0.77-0.696,1.43-1.339,1.979-1.926c0.256-0.293,0.551-0.439,0.881-0.439c0.402,0,0.75,0.146,1.045,0.439
			c0.293,0.294,0.439,0.624,0.439,0.99c0,0.33-0.129,0.624-0.385,0.88c-0.66,0.66-1.402,1.395-2.227,2.2
			c-0.826,0.807-1.678,1.55-2.559,2.228c-0.879,0.679-1.76,1.246-2.639,1.705c-0.881,0.458-1.725,0.688-2.531,0.688
			c-1.064,0-1.824-0.312-2.281-0.935c-0.459-0.623-0.688-1.467-0.688-2.53c0-1.026,0.164-2.182,0.494-3.465l-0.166,0.165
			C90.982,180.901,90.689,181.029,90.359,181.029z M104.742,155.454c-0.643,0.954-1.33,2.1-2.062,3.438
			c-0.734,1.339-1.467,2.814-2.201,4.428c-0.732,1.613-1.412,3.209-2.035,4.785c0.551-0.66,1.266-1.567,2.146-2.723
			c0.879-1.155,1.75-2.411,2.611-3.768s1.604-2.74,2.229-4.152c0.623-1.411,0.934-2.686,0.934-3.822
			C105.924,153.896,105.383,154.501,104.742,155.454z"/>
		<path fill="#9B30FF" d="M121.076,175.776c-0.092,0.459-0.201,0.917-0.33,1.375c-0.129,0.459-0.283,0.89-0.467,1.293
			s-0.367,0.733-0.551,0.99h0.221c0.586,0,1.025-0.046,1.32-0.138c0.293-0.091,0.514-0.211,0.66-0.357
			c0.293-0.403,0.678-0.605,1.154-0.605c0.367,0,0.697,0.12,0.99,0.357c0.293,0.239,0.439,0.542,0.439,0.908
			c0,0.22-0.092,0.477-0.275,0.77c-0.402,0.55-0.988,0.999-1.76,1.348c-0.77,0.349-1.613,0.522-2.529,0.522
			c-0.588,0-1.211-0.091-1.869-0.275c-0.551,0.771-1.146,1.495-1.789,2.173c-0.641,0.679-1.365,1.284-2.172,1.815
			c-0.807,0.53-1.678,0.952-2.613,1.265c-0.934,0.311-1.951,0.468-3.051,0.468c-1.211,0-2.248-0.202-3.107-0.605
			c-0.863-0.404-1.568-0.944-2.119-1.622c-0.549-0.679-0.961-1.467-1.236-2.365s-0.412-1.843-0.412-2.833
			c0-1.246,0.229-2.612,0.688-4.097c0.459-1.485,1.162-2.879,2.117-4.181c0.953-1.301,2.145-2.393,3.574-3.272
			s3.135-1.319,5.115-1.319c0.66,0,1.283,0.046,1.869,0.137c0.588,0.092,1.137,0.229,1.65,0.413c0.623,0.22,0.936,0.624,0.936,1.21
			c0,0.439-0.146,0.807-0.439,1.1c0.256,0,0.623,0.055,1.1,0.165s0.936,0.312,1.375,0.605c0.439,0.294,0.824,0.733,1.154,1.319
			c0.33,0.587,0.496,1.339,0.496,2.255C121.215,174.924,121.168,175.318,121.076,175.776z M109.252,171.102
			c-1.082,0.642-1.99,1.458-2.723,2.447c-0.734,0.99-1.283,2.072-1.65,3.245c-0.367,1.174-0.549,2.274-0.549,3.3
			c0,1.395,0.357,2.55,1.072,3.466c0.715,0.917,1.732,1.375,3.053,1.375c1.465,0,2.777-0.403,3.932-1.21s2.209-1.815,3.162-3.025
			c-0.293-0.22-0.623-0.504-0.99-0.853c-0.367-0.348-0.715-0.77-1.045-1.265s-0.613-1.045-0.852-1.65
			c-0.24-0.604-0.357-1.237-0.357-1.897c0-1.026,0.283-1.971,0.852-2.832s1.328-1.439,2.283-1.733
			c-0.734-0.22-1.541-0.329-2.42-0.329C111.59,170.14,110.332,170.461,109.252,171.102z M118.189,173.384
			c-0.184-0.256-0.605-0.385-1.266-0.385c-1.246,0-1.869,0.587-1.869,1.76c0,0.44,0.137,1.037,0.412,1.788
			c0.275,0.752,0.816,1.402,1.623,1.952c0.439-0.623,0.777-1.228,1.018-1.814c0.238-0.587,0.357-1.283,0.357-2.091
			C118.465,174.044,118.373,173.642,118.189,173.384z"/>
		<path fill="#9B30FF" d="M123.084,180.81c-0.365,0-0.688-0.138-0.963-0.413c-0.273-0.274-0.412-0.596-0.412-0.962
			s0.146-0.696,0.441-0.99c0.732-0.696,1.393-1.365,1.979-2.008c0.586-0.641,1.137-1.32,1.65-2.035s1.045-1.512,1.596-2.393
			c0.549-0.88,1.172-1.925,1.869-3.135c0.367-0.696,0.725-1.411,1.072-2.145s0.707-1.467,1.072-2.2c-0.844,0-1.658-0.036-2.447-0.11
			c-0.789-0.073-1.512-0.109-2.172-0.109c-0.404,0-0.707-0.119-0.908-0.357s-0.303-0.523-0.303-0.853
			c0-0.366,0.129-0.716,0.387-1.046c0.256-0.329,0.641-0.494,1.154-0.494c0.732,0,1.604,0.036,2.613,0.109
			c1.008,0.074,2.062,0.11,3.162,0.11c0.549-1.246,1.107-2.42,1.678-3.521c0.566-1.1,1.053-2.053,1.457-2.859
			c0.514-0.99,1.08-1.485,1.705-1.485c0.99,0,1.484,0.385,1.484,1.155c0,0.257-0.092,0.624-0.275,1.1
			c-0.293,0.734-0.668,1.567-1.127,2.503c-0.459,0.935-0.98,1.935-1.568,2.997c0.844,0,1.613-0.063,2.311-0.192
			c0.697-0.128,1.357-0.192,1.98-0.192c0.514,0,0.898,0.156,1.154,0.468s0.385,0.651,0.385,1.018c0,0.294-0.1,0.56-0.301,0.797
			c-0.203,0.239-0.506,0.395-0.908,0.468c-0.844,0.11-1.779,0.211-2.805,0.303c-1.027,0.092-2.182,0.138-3.465,0.138
			c-1.467,2.75-2.797,5.454-3.988,8.112s-2.154,5.069-2.887,7.232c-0.367,1.1-0.551,2.054-0.551,2.859
			c0,0.808,0.211,1.375,0.633,1.705s1.035,0.495,1.842,0.495c0.514,0,1.211-0.266,2.09-0.797c0.881-0.531,1.77-1.146,2.668-1.843
			c0.898-0.696,1.713-1.384,2.447-2.062c0.734-0.678,1.211-1.146,1.43-1.402c0.33-0.33,0.68-0.495,1.045-0.495
			c0.367,0,0.697,0.129,0.99,0.385c0.293,0.257,0.441,0.587,0.441,0.99c0,0.33-0.129,0.624-0.387,0.88
			c-0.549,0.624-1.264,1.339-2.145,2.145c-0.879,0.808-1.834,1.577-2.859,2.311c-1.027,0.733-2.09,1.356-3.189,1.87
			c-1.102,0.513-2.146,0.77-3.135,0.77c-1.762,0-3.008-0.385-3.74-1.154c-0.734-0.771-1.102-1.815-1.102-3.136
			c0-1.025,0.201-2.235,0.605-3.63c-0.109,0.11-0.229,0.22-0.357,0.33s-0.266,0.239-0.412,0.385
			C123.762,180.681,123.451,180.81,123.084,180.81z"/>
	</g>
</g>
</svg>
