<?xml version="1.0" encoding="utf-8"?>
<!-- Generator: Adobe Illustrator 16.0.0, SVG Export Plug-In . SVG Version: 6.00 Build 0)  -->
<!DOCTYPE svg PUBLIC "-//W3C//DTD SVG 1.1//EN" "http://www.w3.org/Graphics/SVG/1.1/DTD/svg11.dtd">
<svg version="1.1" id="Layer_1" xmlns="http://www.w3.org/2000/svg" xmlns:xlink="http://www.w3.org/1999/xlink" x="0px" y="0px"
	 width="259px" height="299.333px" viewBox="0 0 259 299.333" enable-background="new 0 0 259 299.333" xml:space="preserve">
<g display="none">
	<g display="inline">
		<path fill="#9B30FF" d="M129.502,22.067l109.998,63.8v127.6l-109.998,63.799L19.5,213.467v-127.6L129.502,22.067 M129.502,1.767
			l-8.81,5.11L10.69,70.677l-8.75,5.075v10.115v127.6v10.115l8.75,5.074l110.002,63.799l8.81,5.11l8.811-5.11l109.998-63.799
			l8.749-5.074v-10.115v-127.6V75.752l-8.749-5.075l-109.998-63.8L129.502,1.767L129.502,1.767z"/>
	</g>
	<g display="inline">
		<path fill="#9B30FF" d="M129.502,97.352c0,0,40.511,41.744,40.511,64.12c0,22.373-18.137,40.512-40.511,40.512
			c-22.376,0-40.513-18.139-40.513-40.512C88.989,139.096,129.502,97.352,129.502,97.352 M129.502,72.08l-12.63,13.014
			c-0.443,0.456-10.969,11.336-21.603,25.229c-16.292,21.286-23.88,37.539-23.88,51.147c0,32.043,26.069,58.111,58.113,58.111
			c32.042,0,58.11-26.068,58.11-58.111c0-13.608-7.587-29.861-23.879-51.147c-10.633-13.893-21.158-24.773-21.602-25.229
			L129.502,72.08L129.502,72.08z"/>
	</g>
</g>
<g>
	<g>
		<path fill="#64EE00" d="M129.502,22.067l109.998,63.8v127.6l-109.998,63.799L19.5,213.467v-127.6L129.502,22.067 M129.502,1.767
			l-8.81,5.11L10.69,70.677l-8.75,5.075v10.115v127.6v10.115l8.75,5.074l110.002,63.799l8.81,5.11l8.811-5.11l109.998-63.799
			l8.749-5.074v-10.115v-127.6V75.752l-8.749-5.075l-109.998-63.8L129.502,1.767L129.502,1.767z"/>
	</g>
	<g>
		<path fill="#64EE00" d="M129.502,97.352c0,0,40.511,41.744,40.511,64.12c0,22.373-18.137,40.512-40.511,40.512
			c-22.376,0-40.513-18.139-40.513-40.512C88.989,139.096,129.502,97.352,129.502,97.352 M129.502,72.08l-12.63,13.014
			c-0.443,0.456-10.969,11.336-21.603,25.229c-16.292,21.286-23.88,37.539-23.88,51.147c0,32.043,26.069,58.111,58.113,58.111
			c32.042,0,58.11-26.068,58.11-58.111c0-13.608-7.587-29.861-23.879-51.147c-10.633-13.893-21.158-24.773-21.602-25.229
			L129.502,72.08L129.502,72.08z"/>
	</g>
</g>
</svg>
